<svg width="24" height="24" viewBox="0 0 24 24" fill="none" xmlns="http://www.w3.org/2000/svg">
<path fill-rule="evenodd" clip-rule="evenodd" d="M5.8014 17.8691C5.44825 17.7594 5.34929 17.3067 5.62444 17.0596L17.7391 6.18079C17.8639 6.06867 18.0386 6.0305 18.1988 6.08029V6.08029C18.5519 6.19002 18.6509 6.64272 18.3758 6.8898L6.26112 17.7686C6.13627 17.8807 5.96164 17.9189 5.8014 17.8691V17.8691Z" fill="White"/>
<path fill-rule="evenodd" clip-rule="evenodd" d="M18.0225 17.9203C17.8605 17.9697 17.6844 17.9298 17.5594 17.8155L5.6195 6.89149C5.3458 6.64107 5.4483 6.18798 5.80315 6.07976V6.07976C5.9652 6.03034 6.14131 6.07018 6.26631 6.18454L18.2062 17.1085C18.4799 17.3589 18.3774 17.812 18.0225 17.9203V17.9203Z" fill="White"/>
</svg>
